<svg width="308" height="108" viewBox="0 0 308 108" fill="none" xmlns="http://www.w3.org/2000/svg">
<path d="M241 97H200C197.239 97 195 99.2386 195 102C195 104.761 197.239 107 200 107H241C243.761 107 246 104.761 246 102C246 99.2386 243.761 97 241 97Z" fill="#1D252C"/>
<path d="M173.52 97H136C133.239 97 131 99.2386 131 102V102.129C131 104.89 133.239 107.129 136 107.129H173.52C176.281 107.129 178.52 104.89 178.52 102.129V102C178.52 99.2386 176.281 97 173.52 97Z" fill="#1D252C"/>
<path d="M109.52 97H72C69.2386 97 67 99.2386 67 102V102.129C67 104.89 69.2386 107.129 72 107.129H109.52C112.281 107.129 114.52 104.89 114.52 102.129V102C114.52 99.2386 112.281 97 109.52 97Z" fill="#1D252C"/>
<path d="M11.72 97H5C2.23858 97 0 99.2386 0 102V102.129C0 104.89 2.23858 107.129 5 107.129H11.72C14.4814 107.129 16.72 104.89 16.72 102.129V102C16.72 99.2386 14.4814 97 11.72 97Z" fill="#1D252C"/>
<path d="M240.52 74.8713H233.8C231.039 74.8713 228.8 77.1099 228.8 79.8713V80C228.8 82.7615 231.039 85 233.8 85H240.52C243.281 85 245.52 82.7615 245.52 80V79.8713C245.52 77.1099 243.281 74.8713 240.52 74.8713Z" fill="#1D252C"/>
<path d="M207.08 74.8713H200.36C197.599 74.8713 195.36 77.1099 195.36 79.8713V80C195.36 82.7615 197.599 85 200.36 85H207.08C209.841 85 212.08 82.7615 212.08 80V79.8713C212.08 77.1099 209.841 74.8713 207.08 74.8713Z" fill="#1D252C"/>
<path d="M45.16 97H38.44C35.6786 97 33.44 99.2386 33.44 102V102.129C33.44 104.89 35.6786 107.129 38.44 107.129H45.16C47.9214 107.129 50.16 104.89 50.16 102.129V102C50.16 99.2386 47.9214 97 45.16 97Z" fill="#1D252C"/>
<path d="M172.76 74.8713H69.24C66.4786 74.8713 64.24 77.1099 64.24 79.8713V80C64.24 82.7615 66.4786 85 69.24 85H172.76C175.521 85 177.76 82.7615 177.76 80V79.8713C177.76 77.1099 175.521 74.8713 172.76 74.8713Z" fill="#1D252C"/>
<path d="M42.52 74.8713H5C2.23858 74.8713 0 77.1099 0 79.8713V80C0 82.7615 2.23857 85 5 85H42.52C45.2814 85 47.52 82.7615 47.52 80V79.8713C47.52 77.1099 45.2814 74.8713 42.52 74.8713Z" fill="#1D252C"/>
<path d="M296.28 62.3927H303C305.761 62.3927 308 60.1541 308 57.3927V57.264C308 54.5026 305.761 52.264 303 52.264H296.28C293.519 52.264 291.28 54.5026 291.28 57.264V57.3927C291.28 60.1541 293.519 62.3927 296.28 62.3927Z" fill="#1D252C"/>
<path d="M166.04 62.3927L269.56 62.3927C272.321 62.3927 274.56 60.1541 274.56 57.3927V57.264C274.56 54.5026 272.321 52.264 269.56 52.264L166.04 52.264C163.279 52.264 161.04 54.5026 161.04 57.264V57.3927C161.04 60.1541 163.279 62.3927 166.04 62.3927Z" fill="#1D252C"/>
<path d="M102.68 62.3927L140.2 62.3927C142.961 62.3927 145.2 60.1541 145.2 57.3927V57.264C145.2 54.5026 142.961 52.264 140.2 52.264L102.68 52.264C99.9185 52.264 97.68 54.5026 97.68 57.264V57.3927C97.68 60.1541 99.9185 62.3927 102.68 62.3927Z" fill="#1D252C"/>
<path d="M38.44 62.3927L75.96 62.3927C78.7214 62.3927 80.96 60.1541 80.96 57.3927V57.264C80.96 54.5026 78.7214 52.264 75.96 52.264L38.44 52.264C35.6785 52.264 33.44 54.5026 33.44 57.264V57.3927C33.44 60.1541 35.6785 62.3927 38.44 62.3927Z" fill="#1D252C"/>
<path d="M5 62.3927H11.72C14.4814 62.3927 16.72 60.1541 16.72 57.3927V57.264C16.72 54.5026 14.4814 52.264 11.72 52.264H5C2.23858 52.264 1.90735e-06 54.5026 1.90735e-06 57.264V57.3927C1.90735e-06 60.1541 2.23858 62.3927 5 62.3927Z" fill="#1D252C"/>
<path d="M303 25.8484H265.48C262.719 25.8484 260.48 28.087 260.48 30.8484V30.9771C260.48 33.7386 262.719 35.9771 265.48 35.9771H303C305.761 35.9771 308 33.7386 308 30.9771V30.8484C308 28.087 305.761 25.8484 303 25.8484Z" fill="#1D252C"/>
<path d="M238.76 25.8484H201.24C198.479 25.8484 196.24 28.087 196.24 30.8484V30.9771C196.24 33.7386 198.479 35.9771 201.24 35.9771H238.76C241.521 35.9771 243.76 33.7386 243.76 30.9771V30.8484C243.76 28.087 241.521 25.8484 238.76 25.8484Z" fill="#1D252C"/>
<path d="M175.4 25.8484H71.88C69.1186 25.8484 66.88 28.087 66.88 30.8484V30.9771C66.88 33.7386 69.1186 35.9771 71.88 35.9771H175.4C178.161 35.9771 180.4 33.7386 180.4 30.9771V30.8484C180.4 28.087 178.161 25.8484 175.4 25.8484Z" fill="#1D252C"/>
<path d="M45.16 26H38.44C35.6786 26 33.44 28.2386 33.44 31V31.1287C33.44 33.8901 35.6786 36.1287 38.44 36.1287H45.16C47.9214 36.1287 50.16 33.8901 50.16 31.1287V31C50.16 28.2386 47.9214 26 45.16 26Z" fill="#1D252C"/>
<path d="M11.72 26H5C2.23858 26 0 28.2386 0 31V31.1287C0 33.8901 2.23858 36.1287 5 36.1287H11.72C14.4814 36.1287 16.72 33.8901 16.72 31.1287V31C16.72 28.2386 14.4814 26 11.72 26Z" fill="#1D252C"/>
<path d="M300.36 0H293.64C290.879 0 288.64 2.23857 288.64 5V5.12869C288.64 7.89011 290.879 10.1287 293.64 10.1287H300.36C303.121 10.1287 305.36 7.89012 305.36 5.12869V5C305.36 2.23858 303.121 0 300.36 0Z" fill="#1D252C"/>
<path d="M266.92 0H260.2C257.439 0 255.2 2.23857 255.2 5V5.12869C255.2 7.89011 257.439 10.1287 260.2 10.1287H266.92C269.681 10.1287 271.92 7.89012 271.92 5.12869V5C271.92 2.23858 269.681 0 266.92 0Z" fill="#1D252C"/>
<path d="M232.6 0H129.08C126.319 0 124.08 2.23857 124.08 5V5.12869C124.08 7.89011 126.319 10.1287 129.08 10.1287H232.6C235.361 10.1287 237.6 7.89012 237.6 5.12869V5C237.6 2.23858 235.361 0 232.6 0Z" fill="#1D252C"/>
<path d="M102.36 0H64.84C62.0786 0 59.84 2.23857 59.84 5V5.12869C59.84 7.89011 62.0786 10.1287 64.84 10.1287H102.36C105.121 10.1287 107.36 7.89012 107.36 5.12869V5C107.36 2.23858 105.121 0 102.36 0Z" fill="#1D252C"/>
</svg>
