<svg width="37" height="24" viewBox="0 0 37 24" fill="none" xmlns="http://www.w3.org/2000/svg">
<rect y="20" width="32" height="4" rx="2" fill="#EEEEEE"/>
<rect x="5" y="10" width="27" height="4" rx="2" fill="#EEEEEE"/>
<path d="M31 11.083C33.8377 11.559 36 14.027 36 17C36 19.973 33.8377 22.441 31 22.917V20.8641C31.285 20.7941 31.6133 20.6864 31.9472 20.5194C32.4408 20.2726 32.9649 19.8867 33.3633 19.2891C33.7659 18.6852 34 17.925 34 17C34 16.075 33.7659 15.3148 33.3633 14.7109C32.9649 14.1133 32.4408 13.7274 31.9472 13.4806C31.6133 13.3136 31.285 13.2059 31 13.1359V11.083Z" stroke="#EEEEEE" stroke-width="2"/>
<rect x="37" y="4" width="32" height="4" rx="2" transform="rotate(-180 37 4)" fill="#EEEEEE"/>
<path d="M6 12.917C3.16229 12.441 1 9.973 1 7C1 4.027 3.16229 1.55904 6 1.08296L6 3.13593C5.71499 3.2059 5.3867 3.31361 5.05279 3.48057C4.55916 3.72739 4.03511 4.11331 3.6367 4.71092C3.23412 5.31479 3 6.07502 3 7C3 7.92498 3.23412 8.6852 3.6367 9.28908C4.03511 9.88669 4.55916 10.2726 5.05279 10.5194C5.3867 10.6864 5.71499 10.7941 6 10.8641L6 12.917Z" stroke="#EEEEEE" stroke-width="2"/>
</svg>
