<svg width="37" height="24" viewBox="0 0 37 24" fill="none" xmlns="http://www.w3.org/2000/svg">
<path d="M35 0H7C5.89543 0 5 0.895431 5 2C5 3.10457 5.89543 4 7 4H35C36.1046 4 37 3.10457 37 2C37 0.895431 36.1046 0 35 0Z" fill="#EEEEEE"/>
<path d="M30 10H7C5.89543 10 5 10.8954 5 12C5 13.1046 5.89543 14 7 14H30C31.1046 14 32 13.1046 32 12C32 10.8954 31.1046 10 30 10Z" fill="#EEEEEE"/>
<path d="M30 20H2C0.895431 20 0 20.8954 0 22C0 23.1046 0.895431 24 2 24H30C31.1046 24 32 23.1046 32 22C32 20.8954 31.1046 20 30 20Z" fill="#EEEEEE"/>
<path d="M31 11.083C33.8377 11.559 36 14.027 36 17C36 19.973 33.8377 22.441 31 22.917V20.8641C31.285 20.7941 31.6133 20.6864 31.9472 20.5194C32.4408 20.2726 32.9649 19.8867 33.3633 19.2891C33.7659 18.6852 34 17.925 34 17C34 16.075 33.7659 15.3148 33.3633 14.7109C32.9649 14.1133 32.4408 13.7274 31.9472 13.4806C31.6133 13.3136 31.285 13.2059 31 13.1359V11.083Z" stroke="#EEEEEE" stroke-width="2"/>
<path d="M6 12.917C3.16229 12.441 1 9.973 1 7C1 4.027 3.16229 1.55904 6 1.08296L6 3.13593C5.71499 3.2059 5.3867 3.31361 5.05279 3.48057C4.55916 3.72739 4.03511 4.11331 3.6367 4.71092C3.23412 5.31479 3 6.07502 3 7C3 7.92498 3.23412 8.6852 3.6367 9.28908C4.03511 9.88669 4.55916 10.2726 5.05279 10.5194C5.3867 10.6864 5.71499 10.7941 6 10.8641L6 12.917Z" stroke="#EEEEEE" stroke-width="2"/>
</svg>
